<?xml version="1.0" encoding="UTF-8" standalone="no"?>
<svg
   viewBox="0 0 120 90"
   width="120"
   height="90"
   version="1.1"
   id="svg10"
   xmlns="http://www.w3.org/2000/svg"
   xmlns:svg="http://www.w3.org/2000/svg">
  <defs
     id="defs4">
    <style
       id="style1">
            @import url('https://fonts.googleapis.com/css2?family=Outfit:wght@300;700;800&amp;display=swap');
            
            .text-conca { 
                font-family: 'Outfit', 'Arial'; 
                font-weight: 800; 
                font-size: 76px; 
                fill: #1E293B; /* Azul Escuro / Slate */
            }
            .text-core { 
                font-family: 'Outfit', 'Arial'; 
                font-weight: 300; 
                font-size: 76px; 
                fill: #1E293B; 
            }
            .text-labs { 
                font-family: 'Outfit', 'Arial'; 
                font-weight: 700; 
                font-size: 26px; 
                fill: #06B6D4; /* Ciano */
                letter-spacing: 0.35em; 
            }
        </style>
  </defs>
  <g
     id="text5"
     style="font-size:8.15353px;letter-spacing:-4.58394px;fill:#1e293b;stroke-width:0.679767"
     transform="scale(0.97144449,1.0293949)"
     aria-label="CC">
    <path
       style="font-weight:800;font-size:76px;font-family:Outfit, Arial"
       d="m 32.256956,68.175043 q -6.156,0 -11.4,-2.052 -5.244,-2.128 -9.196,-5.852 -3.8760003,-3.8 -6.0800003,-8.892 -2.128,-5.092 -2.128,-11.02 0,-6.004 2.128,-11.02 2.204,-5.092 6.0800003,-8.816 3.952,-3.724 9.12,-5.852 5.244,-2.128 11.324,-2.128 6.384,0 11.476,2.052 5.092,1.976 8.968,5.548 l -9.12,9.12 q -1.9,-2.128 -4.712,-3.344 -2.812,-1.216 -6.612,-1.216 -3.268,0 -6.004,1.064 -2.66,1.064 -4.636,3.192 -1.976,2.052 -3.116,4.94 -1.064,2.888 -1.064,6.46 0,3.572 1.064,6.46 1.14,2.888 3.116,5.016 1.976,2.052 4.636,3.192 2.736,1.064 6.004,1.064 3.8,0 6.688,-1.14 2.888,-1.216 4.94,-3.42 l 9.12,9.12 q -3.952,3.572 -8.968,5.548 -4.94,1.976 -11.628,1.976 z"
       id="path2" />
    <path
       style="font-weight:300;font-size:76px;font-family:Outfit, Arial"
       d="m 79.732974,68.099043 q -5.624,0 -10.488,-2.052 -4.788,-2.052 -8.36,-5.776 -3.572,-3.724 -5.548,-8.588 -1.9,-4.94 -1.9,-10.564 0,-5.624 1.9,-10.488 1.976,-4.94 5.472,-8.588 3.572,-3.648 8.36,-5.7 4.788,-2.052 10.336,-2.052 6.004,0 10.716,2.128 4.788,2.128 8.36,5.852 l -3.8,3.8 q -2.736,-3.04 -6.612,-4.712 -3.876,-1.748 -8.664,-1.748 -4.408,0 -8.132,1.596 -3.648,1.596 -6.46,4.56 -2.736,2.888 -4.256,6.84 -1.444,3.876 -1.444,8.512 0,4.636 1.52,8.588 1.52,3.952 4.256,6.916 2.736,2.888 6.46,4.484 3.724,1.596 8.132,1.596 5.016,0 8.892,-1.748 3.952,-1.748 6.688,-4.788 l 3.8,3.876 q -3.496,3.724 -8.36,5.928 -4.864,2.128 -10.868,2.128 z"
       id="path3" />
  </g>
  <path
     style="fill:none;stroke:#37abc8;stroke-width:3.66563;stroke-linecap:round;stroke-miterlimit:0;stroke-dasharray:none;stroke-opacity:1"
     d="M 7.1674225,79.396798 H 50.617485 c 38.546014,0 57.820065,-13.991218 57.820065,-41.974578 V 16.434006"
     id="path6" />
  <circle
     style="fill:#5599ff;fill-opacity:1;stroke:none;stroke-width:3.34141;stroke-linecap:square;stroke-linejoin:round;stroke-miterlimit:50;stroke-opacity:1"
     id="path1-8-4"
     cx="104.10968"
     cy="55.931831"
     r="4.5" />
  <g
     id="g1"
     transform="translate(-71.955721,-59.778596)">
    <circle
       style="fill:#d5e5ff;fill-opacity:1;stroke:none;stroke-width:6.68282;stroke-linecap:square;stroke-linejoin:round;stroke-miterlimit:50;stroke-opacity:1"
       id="path1-8-4-1-2"
       cx="180.35609"
       cy="73.083023"
       r="9" />
    <circle
       style="fill:#80b3ff;fill-opacity:1;stroke:none;stroke-width:3.34141;stroke-linecap:square;stroke-linejoin:round;stroke-miterlimit:50;stroke-opacity:1"
       id="path1-8-4-1"
       cx="180.35609"
       cy="73.083023"
       r="4.5" />
  </g>
  <circle
     style="fill:#2a7fff;fill-opacity:1;stroke:none;stroke-width:3.34141;stroke-linecap:square;stroke-linejoin:round;stroke-miterlimit:50;stroke-opacity:1"
     id="path1-8"
     cx="64.144997"
     cy="78.893814"
     r="4.5" />
  <circle
     style="fill:#0066ff;fill-opacity:1;stroke:none;stroke-width:3.34141;stroke-linecap:square;stroke-linejoin:round;stroke-miterlimit:50;stroke-opacity:1"
     id="path1"
     cx="6.9265962"
     cy="79.255676"
     r="4.5" />
</svg>
