<?xml version="1.0" encoding="UTF-8" standalone="no"?>
<svg
   viewBox="0 0 500 125"
   width="500"
   height="125"
   version="1.1"
   id="svg10"
   xmlns="http://www.w3.org/2000/svg"
   xmlns:svg="http://www.w3.org/2000/svg">
  <defs
     id="defs4">
    <style
       id="style1">
            @import url('https://fonts.googleapis.com/css2?family=Outfit:wght@300;700;800&amp;display=swap');
            
            .text-conca { 
                font-family: 'Outfit', 'Arial'; 
                font-weight: 800; 
                font-size: 76px; 
                fill: #1E293B; /* Azul Escuro / Slate */
            }
            .text-core { 
                font-family: 'Outfit', 'Arial'; 
                font-weight: 300; 
                font-size: 76px; 
                fill: #1E293B; 
            }
            .text-labs { 
                font-family: 'Outfit', 'Arial'; 
                font-weight: 700; 
                font-size: 26px; 
                fill: #06B6D4; /* Ciano */
                letter-spacing: 0.35em; 
            }
        </style>
  </defs>
  <g
     id="g2">
    <path
       d="m 4.8245968,118.91046 v -18.356 h 4.082 v 18.356 z m 3.146,0 v -3.588 h 9.0740002 v 3.588 z m 18.6550012,0 7.28,-18.356 h 3.692 l 7.202,18.356 h -4.316 l -5.512,-15.236 h 1.482 l -5.59,15.236 z m 4.134,-3.328 v -3.328 h 10.01 v 3.328 z m 28.210016,3.328 v -3.172 h 4.316 q 1.196,0 1.872,-0.702 0.676,-0.702 0.676,-1.716 0,-0.702 -0.312,-1.248 -0.312,-0.546 -0.884,-0.858 -0.546,-0.312 -1.352,-0.312 h -4.316 v -3.094 h 3.978 q 1.014,0 1.638,-0.494 0.624,-0.52 0.624,-1.56 0,-1.014 -0.624,-1.508 -0.624,-0.52 -1.638,-0.52 h -3.978 v -3.172 h 4.758 q 1.768,0 2.99,0.65 1.248,0.65 1.898,1.742 0.65,1.092 0.65,2.418 0,1.69 -1.092,2.86 -1.092,1.17 -3.224,1.612 l 0.104,-1.378 q 2.314,0.442 3.562,1.794 1.274,1.352 1.274,3.328 0,1.508 -0.754,2.73 -0.728,1.196 -2.132,1.898 -1.378,0.702 -3.328,0.702 z m -3.12,0 v -18.356 h 4.03 v 18.356 z m 30.914023,0.286 q -2.262,0 -3.9,-0.728 -1.612,-0.754 -2.964,-2.262 l 2.652,-2.626 q 0.884,1.014 1.95,1.586 1.092,0.546 2.522,0.546 1.3,0 2.002,-0.468 0.728,-0.468 0.728,-1.3 0,-0.754 -0.468,-1.222 -0.468,-0.468 -1.248,-0.806 -0.754,-0.338 -1.69,-0.65 -0.91,-0.312 -1.82,-0.702 -0.91,-0.416 -1.69,-1.014 -0.754,-0.624 -1.222,-1.534 -0.468,-0.936 -0.468,-2.34 0,-1.69 0.806,-2.912 0.832,-1.222 2.288,-1.846 1.456,-0.65 3.354,-0.65 1.924,0 3.51,0.676 1.612,0.676 2.652,1.846 l -2.652,2.626 q -0.832,-0.858 -1.69,-1.274 -0.832,-0.416 -1.898,-0.416 -1.066,0 -1.69,0.416 -0.624,0.39 -0.624,1.144 0,0.702 0.468,1.144 0.468,0.416 1.222,0.728 0.78,0.312 1.69,0.624 0.936,0.312 1.846,0.728 0.91,0.416 1.664,1.066 0.78,0.624 1.248,1.612 0.468,0.962 0.468,2.392 0,2.626 -1.872,4.134 -1.872,1.482 -5.174,1.482 z"
       id="text6"
       style="font-weight:700;font-size:26px;font-family:Outfit, Arial;letter-spacing:0.35em;fill:#37abc8;stroke-width:0.966119"
       class="text-labs"
       aria-label="LABS" />
    <g
       id="text5"
       style="font-size:11.2406px;fill:#1e293b;stroke-width:0.937136"
       transform="scale(0.96956393,1.0313915)"
       aria-label="CONCACORE">
      <path
         style="font-weight:800;font-size:76px;font-family:Outfit, Arial"
         d="m 33.780079,73.893556 q -6.156,0 -11.4,-2.052 -5.244,-2.128 -9.196,-5.852 -3.8760003,-3.8 -6.0800003,-8.892 -2.128,-5.092 -2.128,-11.02 0,-6.004 2.128,-11.02 2.204,-5.092 6.0800003,-8.816 3.952,-3.724 9.12,-5.852 5.244,-2.128 11.324,-2.128 6.384,0 11.476,2.052 5.092,1.976 8.968,5.548 l -9.12,9.12 q -1.9,-2.128 -4.712,-3.344 -2.812,-1.216 -6.612,-1.216 -3.268,0 -6.004,1.064 -2.66,1.064 -4.636,3.192 -1.976,2.052 -3.116,4.94 -1.064,2.888 -1.064,6.46 0,3.572 1.064,6.46 1.14,2.888 3.116,5.016 1.976,2.052 4.636,3.192 2.736,1.064 6.004,1.064 3.8,0 6.688,-1.14 2.888,-1.216 4.94,-3.42 l 9.12,9.12 q -3.952,3.572 -8.968,5.548 -4.94,1.976 -11.628,1.976 z m 50.539966,0.152 q -6.232,0 -11.476,-2.128 -5.244,-2.128 -9.196,-5.928 -3.876,-3.8 -6.08,-8.892 -2.204,-5.168 -2.204,-11.096 0,-5.928 2.128,-10.944 2.204,-5.092 6.08,-8.892 3.876,-3.8 9.12,-5.852 5.244,-2.128 11.476,-2.128 6.232,0 11.476,2.128 5.244005,2.052 9.120005,5.852 3.876,3.8 6.004,8.892 2.204,5.092 2.204,11.02 0,5.928 -2.204,11.02 -2.128,5.092 -6.004,8.968 -3.876,3.8 -9.120005,5.928 -5.168,2.052 -11.324,2.052 z m -0.152,-12.16 q 4.56,0 7.904,-1.976 3.344,-1.976 5.168,-5.548 1.824,-3.572 1.824,-8.36 0,-3.496 -1.064,-6.384 -0.988,-2.888 -2.964,-4.94 -1.976,-2.128 -4.712,-3.268 -2.736,-1.14 -6.156,-1.14 -4.56,0 -7.904,1.976 -3.344,1.9 -5.168,5.472 -1.824,3.572 -1.824,8.284 0,3.648 0.988,6.612 1.064,2.888 3.04,5.016 1.976,2.052 4.712,3.192 2.736,1.064 6.156,1.064 z m 35.644025,11.172 v -53.884 h 9.5 l 4.104,11.02 v 42.864 z m 37.164,0 -31.464,-39.976 3.8,-13.908 31.54,39.976 z m 0,0 -3.496,-11.324 v -42.56 h 13.604 v 53.884 z m 45.82793,0.836 q -6.156,0 -11.4,-2.052 -5.244,-2.128 -9.196,-5.852 -3.876,-3.8 -6.08,-8.892 -2.128,-5.092 -2.128,-11.02 0,-6.004 2.128,-11.02 2.204,-5.092 6.08,-8.816 3.952,-3.724 9.12,-5.852 5.244,-2.128 11.324,-2.128 6.384,0 11.476,2.052 5.092,1.976 8.968,5.548 l -9.12,9.12 q -1.9,-2.128 -4.712,-3.344 -2.812,-1.216 -6.612,-1.216 -3.268,0 -6.004,1.064 -2.66,1.064 -4.636,3.192 -1.976,2.052 -3.116,4.94 -1.064,2.888 -1.064,6.46 0,3.572 1.064,6.46 1.14,2.888 3.116,5.016 1.976,2.052 4.636,3.192 2.736,1.064 6.004,1.064 3.8,0 6.688,-1.14 2.888,-1.216 4.94,-3.42 l 9.12,9.12 q -3.952,3.572 -8.968,5.548 -4.94,1.976 -11.628,1.976 z m 21.12799,-0.836 20.9,-53.884 h 13.148 l 20.672,53.884 h -14.212 l -15.58,-45.296 h 4.94 l -15.96,45.296 z m 12.692,-9.424 v -10.792 h 29.716 v 10.792 z"
         id="path2" />
      <path
         style="font-weight:300;font-size:76px;font-family:Outfit, Arial"
         d="m 309.88803,73.817556 q -5.624,0 -10.488,-2.052 -4.788,-2.052 -8.36,-5.776 -3.572,-3.724 -5.548,-8.588 -1.9,-4.94 -1.9,-10.564 0,-5.624 1.9,-10.488 1.976,-4.94 5.472,-8.588 3.572,-3.648 8.36,-5.7 4.788,-2.052 10.336,-2.052 6.004,0 10.716,2.128 4.788,2.128 8.36,5.852 l -3.8,3.8 q -2.736,-3.04 -6.612,-4.712 -3.876,-1.748 -8.664,-1.748 -4.408,0 -8.132,1.596 -3.648,1.596 -6.46,4.56 -2.736,2.888 -4.256,6.84 -1.444,3.876 -1.444,8.512 0,4.636 1.52,8.588 1.52,3.952 4.256,6.916 2.736,2.888 6.46,4.484 3.724,1.596 8.132,1.596 5.016,0 8.892,-1.748 3.952,-1.748 6.688,-4.788 l 3.8,3.876 q -3.496,3.724 -8.36,5.928 -4.864,2.128 -10.868,2.128 z m 50.38807,0 q -5.548,0 -10.336,-2.052 -4.712,-2.128 -8.284,-5.776 -3.572,-3.724 -5.624,-8.588 -1.976,-4.94 -1.976,-10.564 0,-5.7 1.976,-10.564 1.976,-4.864 5.548,-8.512 3.572,-3.648 8.284,-5.7 4.712,-2.052 10.26,-2.052 5.548,0 10.26,2.052 4.788,2.052 8.36,5.7 3.572,3.648 5.548,8.588 1.976,4.864 1.976,10.564 0,5.624 -1.976,10.564 -1.976,4.864 -5.548,8.512 -3.496,3.648 -8.208,5.776 -4.712,2.052 -10.26,2.052 z m -0.152,-5.396 q 5.928,0 10.488,-2.812 4.636,-2.812 7.22,-7.676 2.66,-4.864 2.66,-11.096 0,-4.636 -1.52,-8.512 -1.52,-3.952 -4.256,-6.84 -2.736,-2.964 -6.46,-4.56 -3.648,-1.596 -8.132,-1.596 -5.852,0 -10.488,2.812 -4.56,2.736 -7.22,7.6 -2.584,4.864 -2.584,11.096 0,4.636 1.52,8.588 1.52,3.952 4.256,6.916 2.736,2.888 6.46,4.484 3.724,1.596 8.056,1.596 z m 40.50806,-18.772 v -4.712 h 15.2 q 5.168,0 7.904,-2.584 2.736,-2.66 2.736,-7.068 0,-4.256 -2.736,-6.916 -2.736,-2.736 -7.904,-2.736 h -15.2 v -4.864 h 15.2 q 5.092,0 8.74,1.9 3.648,1.824 5.548,5.092 1.976,3.268 1.976,7.448 0,4.332 -1.976,7.6 -1.9,3.268 -5.548,5.092 -3.648,1.748 -8.74,1.748 z m -3.572,23.408 v -52.288 h 5.548 v 52.288 z m 31.616,0 -19.608,-24.168 5.396,-1.748 21.356,25.916 z m 15.42794,0 v -52.288 h 5.548 v 52.288 z m 3.648,0 v -5.092 h 30.78 v 5.092 z m 0,-24.32 v -4.94 h 28.348 v 4.94 z m 0,-22.876 v -5.092 h 30.324 v 5.092 z"
         id="path3" />
    </g>
    <g
       id="g1"
       transform="matrix(0.95539249,0,0,0.96667622,-68.295561,-51.962557)">
      <path
         style="fill:none;stroke:#37abc8;stroke-width:3.65236;stroke-linecap:round;stroke-miterlimit:0;stroke-dasharray:none;stroke-opacity:1"
         d="M -6.5399358,89.232087 H 425.13055 c 36.73753,0 55.10729,-14.573868 55.10729,-43.722571 V 23.647264"
         id="path6"
         transform="matrix(1.0350688,0,0,1.0350688,85.193683,53.722551)" />
      <g
         id="g1-2"
         transform="matrix(1.0466902,0,0,1.0344725,393.27562,-0.55267616)">
        <circle
           style="fill:#d5e5ff;fill-opacity:1;stroke:none;stroke-width:6.68282;stroke-linecap:square;stroke-linejoin:round;stroke-miterlimit:50;stroke-opacity:1"
           id="path1-8-4-1-2"
           cx="180.35609"
           cy="73.083023"
           r="9" />
        <circle
           style="fill:#80b3ff;fill-opacity:1;stroke:none;stroke-width:3.34141;stroke-linecap:square;stroke-linejoin:round;stroke-miterlimit:50;stroke-opacity:1"
           id="path1-8-4-1"
           cx="180.35609"
           cy="73.083023"
           r="4.5" />
      </g>
      <circle
         style="stroke-width:3.34141;stroke-dasharray:none;fill:#0055d4;fill-opacity:1;stroke:none;stroke-linecap:square;stroke-linejoin:round;stroke-miterlimit:50;stroke-opacity:1"
         id="path1-1"
         cx="337.8793"
         cy="89.086205"
         r="4.5"
         transform="matrix(1.0466902,0,0,1.0344725,71.484298,53.753838)" />
      <circle
         style="stroke-width:3.34141;stroke-dasharray:none;fill:#2a7fff;fill-opacity:1;stroke:none;stroke-linecap:square;stroke-linejoin:round;stroke-miterlimit:50;stroke-opacity:1"
         id="path1-1-1"
         cx="446.01724"
         cy="88.603439"
         r="4.5"
         transform="matrix(1.0466902,0,0,1.0344725,71.484298,53.753838)" />
      <circle
         style="stroke-width:3.34141;stroke-dasharray:none;fill:#0066ff;fill-opacity:1;stroke:none;stroke-linecap:square;stroke-linejoin:round;stroke-miterlimit:50;stroke-opacity:1"
         id="path1"
         cx="391.91888"
         cy="89.445076"
         r="4.5"
         transform="matrix(1.0466902,0,0,1.0344725,71.484298,53.753838)" />
      <circle
         style="stroke-width:3.34141;stroke-dasharray:none;fill:#5599ff;fill-opacity:1;stroke:none;stroke-linecap:square;stroke-linejoin:round;stroke-miterlimit:50;stroke-opacity:1"
         id="path1-1-1-5"
         cx="484.39658"
         cy="64.465515"
         r="4.5"
         transform="matrix(1.0466902,0,0,1.0344725,71.484298,53.753838)" />
    </g>
  </g>
</svg>
